<svg id="Capa_1" enable-background="new 0 0 510 510" height="512" viewBox="0 0 510 510" width="512" xmlns="http://www.w3.org/2000/svg" xmlns:xlink="http://www.w3.org/1999/xlink"><linearGradient id="lg1"><stop offset="0" stop-color="#8a7889"/><stop offset="1" stop-color="#6e566e"/></linearGradient><linearGradient id="SVGID_1_" gradientUnits="userSpaceOnUse" x1="39.997" x2="92.127" xlink:href="#lg1" y1="158.324" y2="203.112"/><linearGradient id="SVGID_2_" gradientTransform="matrix(-1 0 0 1 164.181 0)" gradientUnits="userSpaceOnUse" x1="-305.823" x2="-253.692" xlink:href="#lg1" y1="158.324" y2="203.112"/><linearGradient id="SVGID_3_" gradientUnits="userSpaceOnUse" x1="255" x2="255" xlink:href="#lg1" y1="258.942" y2="311.077"/><linearGradient id="SVGID_4_" gradientUnits="userSpaceOnUse" x1="117.747" x2="182.359" xlink:href="#lg1" y1="302.575" y2="464.839"/><linearGradient id="SVGID_5_" gradientUnits="userSpaceOnUse" x1="198.633" x2="64.269" xlink:href="#lg1" y1="429.909" y2="242.68"/><linearGradient id="SVGID_6_" gradientUnits="userSpaceOnUse" x1="84.287" x2="169.312" y1="288.538" y2="373.563"><stop offset="0" stop-color="#ff7044"/><stop offset="1" stop-color="#f82814"/></linearGradient><linearGradient id="SVGID_7_" gradientUnits="userSpaceOnUse" x1="328.71" x2="501.929" xlink:href="#lg1" y1="256.475" y2="429.695"/><linearGradient id="SVGID_8_" gradientTransform="matrix(-1 0 0 1 271.181 0)" gradientUnits="userSpaceOnUse" x1="-40.186" x2="-174.55" xlink:href="#lg1" y1="429.909" y2="242.68"/><linearGradient id="SVGID_9_" gradientUnits="userSpaceOnUse" x1="348.774" x2="442.934" y1="271.044" y2="386.679"><stop offset="0" stop-color="#18cefb"/><stop offset="1" stop-color="#4a97f6"/></linearGradient><g><g><path d="m101.758 90.507c-15.51 0-29.518 9.27-35.58 23.546l-60.533 142.556h41.851l52.077-122.641h2.185c12.002 0 21.731-9.729 21.731-21.731 0-12.001-9.729-21.73-21.731-21.73z" fill="url(#SVGID_1_)"/><path d="m408.242 90.507c15.51 0 29.518 9.27 35.58 23.546l60.534 142.556h-41.851l-52.077-122.641h-2.185c-12.002 0-21.731-9.729-21.731-21.731-.001-12.001 9.728-21.73 21.73-21.73z" fill="url(#SVGID_2_)"/></g><path d="m216.334 243.783h77.331v77.331h-77.331z" fill="url(#SVGID_3_)"/><g><g><path d="m186.459 419.493h-148.994c-13.31 0-24.434-10.128-25.68-23.379l-11.67-124.124c-1.423-15.132 10.481-28.208 25.68-28.208h195.374c17.076 0 29.439 16.294 24.84 32.74l-34.71 124.124c-3.116 11.142-13.27 18.847-24.84 18.847z" fill="url(#SVGID_4_)"/><path d="m173.42 401.764h-118.142c-10.554 0-19.375-8.084-20.363-18.661l-9.253-99.076c-1.128-12.079 8.311-22.515 20.363-22.515h154.918c13.54 0 23.343 13.006 19.697 26.133l-27.523 99.076c-2.471 8.893-10.523 15.043-19.697 15.043z" fill="url(#SVGID_5_)"/><path d="m165.578 390.75h-99.587c-8.896 0-16.332-6.814-17.165-15.73l-7.8-83.516c-.951-10.182 7.006-18.979 17.165-18.979h130.588c11.414 0 19.677 10.964 16.603 22.029l-23.2 83.516c-2.083 7.497-8.87 12.68-16.604 12.68z" fill="url(#SVGID_6_)"/></g><g><path d="m323.541 419.493h148.994c13.31 0 24.434-10.128 25.68-23.379l11.669-124.124c1.423-15.132-10.481-28.208-25.68-28.208h-195.373c-17.076 0-29.439 16.294-24.84 32.74l34.71 124.124c3.116 11.142 13.27 18.847 24.84 18.847z" fill="url(#SVGID_7_)"/><path d="m336.58 401.764h118.142c10.554 0 19.375-8.084 20.363-18.661l9.253-99.076c1.128-12.079-8.311-22.515-20.362-22.515h-154.919c-13.54 0-23.343 13.006-19.697 26.133l27.523 99.076c2.471 8.893 10.523 15.043 19.697 15.043z" fill="url(#SVGID_8_)"/><path d="m344.422 390.75h99.588c8.896 0 16.332-6.814 17.165-15.73l7.8-83.516c.951-10.182-7.006-18.979-17.165-18.979h-130.589c-11.414 0-19.677 10.964-16.603 22.029l23.2 83.516c2.083 7.497 8.87 12.68 16.604 12.68z" fill="url(#SVGID_9_)"/></g></g></g></svg>